<svg xmlns="http://www.w3.org/2000/svg" viewBox="0 0 24 24" fill="#07C160">
  <path d="M9.5,4C5.36,4 2,6.69 2,10C2,11.89 3.08,13.56 4.78,14.66L4,17L6.5,15.5C7.39,15.81 8.37,16 9.41,16C9.15,15.37 9,14.7 9,14C9,10.69 12.13,8 16,8C16.19,8 16.38,8.01 16.56,8.03C15.59,5.69 12.81,4 9.5,4M6.5,7A1,1 0 0,1 7.5,8A1,1 0 0,1 6.5,9A1,1 0 0,1 5.5,8A1,1 0 0,1 6.5,7M12.5,7A1,1 0 0,1 13.5,8A1,1 0 0,1 12.5,9A1,1 0 0,1 11.5,8A1,1 0 0,1 12.5,7M16,9C12.97,9 10.5,11.47 10.5,14.5C10.5,17.53 12.97,20 16,20C16.8,20 17.56,19.82 18.23,19.5L21,21L20.22,18.31C21.33,17.19 22,15.91 22,14.5C22,11.47 19.53,9 16,9M14,12A1,1 0 0,1 15,13A1,1 0 0,1 14,14A1,1 0 0,1 13,13A1,1 0 0,1 14,12M18,12A1,1 0 0,1 19,13A1,1 0 0,1 18,14A1,1 0 0,1 17,13A1,1 0 0,1 18,12Z" />
</svg> 